<svg width="1161" height="492" viewBox="0 0 1161 492" fill="none" xmlns="http://www.w3.org/2000/svg">
<g id="Group 2" filter="url(#filter0_d_4_469)">
<rect id="Rectangle" x="157" y="134" width="1000" height="352" rx="176" fill="#5267DF"/>
<g id="Group 40">
<g id="Group 52">
<rect id="Rectangle Copy 5" x="4.5" y="2.5" width="574.23" height="381.865" rx="25" fill="url(#paint0_linear_4_469)"/>
<g id="GoViral - Wordpress Theme">
<rect id="Mask Copy" opacity="0.1" x="56.5304" y="16.803" width="471.463" height="353.756" rx="5" fill="#2A2A2A"/>
<rect id="Mask" x="23.5304" y="19.803" width="536" height="346" rx="8" fill="#E8EAF6"/>
<mask id="mask0_4_469" style="mask-type:luminance" maskUnits="userSpaceOnUse" x="23" y="19" width="537" height="347">
<rect id="Mask_2" x="23.5304" y="19.803" width="536" height="346" rx="8" fill="white"/>
</mask>
<g mask="url(#mask0_4_469)">
<g id="Group 28">
<rect id="Rectangle_2" x="20" y="20" width="547" height="59" fill="#5267DF"/>
<g id="Group 7">
<circle id="Oval" opacity="0.244768" cx="62" cy="50" r="16" fill="white"/>
<circle id="Oval Copy" opacity="0.104399" cx="523" cy="50" r="16" fill="white"/>
<g id="Group 6">
<rect id="Rectangle_3" opacity="0.75" x="93" y="40" width="120" height="6" rx="3" fill="white"/>
<rect id="Rectangle Copy 6" opacity="0.25" x="93" y="54" width="64" height="6" rx="3" fill="white"/>
</g>
</g>
</g>
<g id="Group 26">
<rect id="Rectangle_4" x="80.5304" y="112.803" width="261" height="316" rx="8" fill="white"/>
<rect id="Rectangle Copy 7" x="375.53" y="112.803" width="128" height="316" rx="8" fill="white"/>
<rect id="Rectangle_5" opacity="0.5" x="159" y="151" width="120" height="6" rx="3" fill="#242A45"/>
</g>
</g>
</g>
</g>
</g>
<g id="Group 29">
<circle id="Oval_2" cx="128" cy="161" r="16" fill="#F98E5D"/>
<rect id="Rectangle_6" opacity="0.25" x="396" y="135" width="88" height="6" rx="3" fill="#242A45"/>
<rect id="Rectangle Copy 8" opacity="0.25" x="396" y="155" width="88" height="6" rx="3" fill="#242A45"/>
<rect id="Rectangle Copy 9" opacity="0.25" x="396" y="175" width="88" height="6" rx="3" fill="#242A45"/>
<rect id="Rectangle Copy 10" opacity="0.25" x="396" y="195" width="88" height="6" rx="3" fill="#242A45"/>
<rect id="Rectangle Copy 11" opacity="0.25" x="396" y="229" width="88" height="6" rx="3" fill="#242A45"/>
<rect id="Rectangle Copy 12" opacity="0.25" x="396" y="249" width="88" height="6" rx="3" fill="#242A45"/>
<rect id="Rectangle Copy 13" opacity="0.25" x="396" y="269" width="88" height="6" rx="3" fill="#242A45"/>
<rect id="Rectangle Copy 6_2" opacity="0.25" x="159" y="165" width="64" height="6" rx="3" fill="#242A45"/>
</g>
<g id="Group 29 Copy">
<circle id="Oval_3" cx="128" cy="217" r="16" fill="#6AC6D6"/>
<rect id="Rectangle_7" opacity="0.5" x="159" y="207" width="120" height="6" rx="3" fill="#242A45"/>
<rect id="Rectangle Copy 6_3" opacity="0.25" x="159" y="221" width="64" height="6" rx="3" fill="#242A45"/>
</g>
<g id="Group 29 Copy 2">
<circle id="Oval_4" cx="128" cy="273" r="16" fill="#A47ED4"/>
<rect id="Rectangle_8" opacity="0.5" x="159" y="263" width="120" height="6" rx="3" fill="#242A45"/>
<rect id="Rectangle Copy 6_4" opacity="0.25" x="159" y="277" width="64" height="6" rx="3" fill="#242A45"/>
</g>
<g id="Group 29 Copy 3">
<circle id="Oval_5" cx="128" cy="329" r="16" fill="#EC7878"/>
<rect id="Rectangle_9" opacity="0.5" x="159" y="319" width="120" height="6" rx="3" fill="#242A45"/>
<rect id="Rectangle Copy 6_5" opacity="0.25" x="159" y="333" width="64" height="6" rx="3" fill="#242A45"/>
</g>
</g>
<defs>
<filter id="filter0_d_4_469" x="0.5" y="0.5" width="1160.5" height="491.5" filterUnits="userSpaceOnUse" color-interpolation-filters="sRGB">
<feFlood flood-opacity="0" result="BackgroundImageFix"/>
<feColorMatrix in="SourceAlpha" type="matrix" values="0 0 0 0 0 0 0 0 0 0 0 0 0 0 0 0 0 0 127 0" result="hardAlpha"/>
<feOffset dy="2"/>
<feGaussianBlur stdDeviation="2"/>
<feColorMatrix type="matrix" values="0 0 0 0 0 0 0 0 0 0 0 0 0 0 0 0 0 0 0.5 0"/>
<feBlend mode="normal" in2="BackgroundImageFix" result="effect1_dropShadow_4_469"/>
<feBlend mode="normal" in="SourceGraphic" in2="effect1_dropShadow_4_469" result="shape"/>
</filter>
<linearGradient id="paint0_linear_4_469" x1="850.042" y1="196.406" x2="510.325" y2="-314.444" gradientUnits="userSpaceOnUse">
<stop stop-color="#151515"/>
<stop offset="1" stop-color="#3D3D3D"/>
</linearGradient>
</defs>
</svg>
